<svg xmlns="http://www.w3.org/2000/svg" viewBox="-1049 5226 24 24">
    <title>Lift Icon Triple</title>
  <defs>
    <style>
      .cls-1 {
        fill: #0C97B9;
      }
    </style>
  </defs>
  <path id="path" class="cls-1" d="M12,0A12,12,0,1,0,24,12,12,12,0,0,0,12,0ZM10.125,17.879a1.23,1.23,0,0,1-2.461,0V11.453a1.23,1.23,0,0,1,2.461,0Zm3.076,0a1.23,1.23,0,0,1-2.461,0V11.453a1.23,1.23,0,0,1,2.461,0Zm3.076,0a1.23,1.23,0,0,1-2.461,0V11.453a1.23,1.23,0,0,1,2.461,0Zm3.447-4.06h-2.2a.769.769,0,0,1,0-1.538h1.435V9.4H5.045v2.886H6.479a.769.769,0,1,1,0,1.538h-2.2a.769.769,0,0,1-.769-.769V8.626a.769.769,0,0,1,.769-.769H14.837v-1.2H9.463a.769.769,0,0,1,0-1.538h6.144a.769.769,0,0,1,.769.769v1.97h3.348a.769.769,0,0,1,.769.769v4.424a.769.769,0,0,1-.769.769Z" transform="translate(-1049 5226)"/>
</svg>
