<svg xmlns="http://www.w3.org/2000/svg" viewBox="-152 5280 80.001 80.002">
    <title>Lift Icon Quad</title>
  <defs>
    <style>
      .cls-1 {
        stroke: #449fdb;
      }

      .cls-2 {
        fill: #0C97B9;
      }
    </style>
  </defs>
  <g id="lift-quad" transform="translate(-152 5280)">
    <g id="Group_926" data-name="Group 926">
      <line id="Line_160" data-name="Line 160" class="cls-1"/>
    </g>
    <path id="Path_1504" data-name="Path 1504" class="cls-2" d="M40,0A40,40,0,1,0,80,40,40,40,0,0,0,40,0ZM29.647,59.219a4.1,4.1,0,0,1-8.2,0V37.8a4.1,4.1,0,0,1,8.2,0Zm10.254,0a4.1,4.1,0,0,1-8.2,0V37.8a4.1,4.1,0,0,1,8.2,0Zm10.254,0a4.1,4.1,0,0,1-8.2,0V37.8a4.1,4.1,0,0,1,8.2,0Zm10.253,0a4.1,4.1,0,0,1-8.2,0V37.8a4.1,4.1,0,0,1,8.2,0v21.42Zm8.415-13.533H64.552a2.563,2.563,0,1,1,0-5.126h1.707V30.938H15.792V40.56H17.5a2.563,2.563,0,0,1,0,5.126h-4.27a2.562,2.562,0,0,1-2.563-2.563V28.374a2.562,2.562,0,0,1,2.563-2.563H50.485v-4H32.571a2.563,2.563,0,1,1,0-5.126H53.05a2.563,2.563,0,0,1,2.563,2.563v6.566h13.21a2.562,2.562,0,0,1,2.563,2.563V43.123A2.562,2.562,0,0,1,68.823,45.686Z"/>
  </g>
</svg>
