<svg xmlns="http://www.w3.org/2000/svg" viewBox="0 0 24 24"><defs><style>.upHillIcon{fill:#0C97B9;}</style></defs><path class="upHillIcon" d="M19.422,31.434h0a11.9,11.9,0,0,1-4-.692A12,12,0,0,1,19.444,7.434a11.9,11.9,0,0,1,3.791.619,11.985,11.985,0,0,1,7.7,7.968c.1.335.176.635.236.918s.111.586.157.935a12.05,12.05,0,0,1,.075,2.4,11.861,11.861,0,0,1-.31,2,12.019,12.019,0,0,1-11.671,9.152Zm.688-7.206h0l.517,1.931,3.087-3.932-4.64-1.862.518,1.932-2.9.776L17.212,25l2.9-.776Zm-.674-14.9h0A10.113,10.113,0,0,0,9.4,20.6l19.678-4.182a10.068,10.068,0,0,0-3.682-5.134,10.157,10.157,0,0,0-2.8-1.442,10.026,10.026,0,0,0-3.159-.511Z" transform="translate(-7.431 -7.435)"/></svg>