<svg xmlns="http://www.w3.org/2000/svg" width="24" height="24" viewBox="0 0 24 24"><defs><style>.mogulsIcon{fill:#0C97B9;}</style></defs><line/><path class="mogulsIcon" d="M12,0A12,12,0,1,0,24,12,12,12,0,0,0,12,0Zm0,1.895a10.121,10.121,0,0,1,9.833,7.782,19.3,19.3,0,0,0-6.922,1.5c-.808-1.282-3.7-4.819-11.1-5.086A10.1,10.1,0,0,1,12,1.895ZM1.895,12a10.043,10.043,0,0,1,.984-4.346c7.156-.006,9.877,3.121,10.622,4.244a12.978,12.978,0,0,0-6.114,9.089A10.114,10.114,0,0,1,1.895,12ZM12,22.105a10.062,10.062,0,0,1-3.116-.494c1.37-8.342,8.392-10.14,13.19-10.364.018.249.031.5.031.753A10.117,10.117,0,0,1,12,22.105Z"/></svg>