<svg xmlns="http://www.w3.org/2000/svg" viewBox="116 5409 80 80">
    <title>Lift Icon Surface</title>
  <defs>
    <style>
      .cls-1 {
        fill: #0C97B9;
      }
    </style>
  </defs>
  <path id="Path_1505" data-name="Path 1505" class="cls-1" d="M40,0A40,40,0,1,0,80,40,40,40,0,0,0,40,0ZM24.172,47.594h0l13.566.023,0-22.789a.151.151,0,0,1-.018-.009,6.473,6.473,0,1,1,5.987.154l0,22.652,10.3.018L56.8,44.365a2.984,2.984,0,1,1,4.544,3.869l-3.686,4.329c-.023.027-.052.046-.075.072a2.943,2.943,0,0,1-.288.271c-.061.05-.118.106-.183.15a3.087,3.087,0,0,1-.341.2c-.064.034-.123.074-.189.1a2.924,2.924,0,0,1-.447.147c-.045.012-.087.032-.132.042a2.99,2.99,0,0,1-.617.065h-.005l-31.211-.053a2.984,2.984,0,0,1,.006-5.967ZM66.721,59.435H15.007a1.988,1.988,0,0,1,0-3.977H66.722a1.988,1.988,0,0,1,0,3.977Z" transform="translate(116 5409)"/>
</svg>
