<svg xmlns="http://www.w3.org/2000/svg" width="24" height="24" viewBox="0 0 24 24"><defs><style>.snowmakigIcon{fill:#0C97B9;}</style></defs><line/><path class="snowmakigIcon" d="M12,1.895A10.105,10.105,0,1,1,1.895,12,10.117,10.117,0,0,1,12,1.895ZM12,0A12,12,0,1,0,24,12,12,12,0,0,0,12,0Z"/><path class="snowmakigIcon" d="M27.614,21.405l-2.026-1.5h1.122a.475.475,0,1,0,0-.95H25.545l2.007-1.544a.475.475,0,1,0-.58-.752l-2.985,2.3h-.749V18.48a.475.475,0,1,0-.95,0v.471H20.2l1.478-1.478.308.308a.475.475,0,0,0,.673-.672l-.309-.309.533-.533,3.764-.558a.476.476,0,1,0-.139-.941l-2.5.37.794-.794a.475.475,0,0,0-.672-.672l-.823.823.328-2.51a.475.475,0,1,0-.943-.123L22.2,15.6l-.53.53-.332-.333a.475.475,0,1,0-.672.673L21,16.8l-1.477,1.478v-2.09h.437a.475.475,0,1,0,0-.95h-.437v-.754l2.267-3.056a.475.475,0,1,0-.763-.567l-1.5,2.027V11.767a.475.475,0,0,0-.95,0V12.93l-1.543-2.006a.475.475,0,1,0-.753.58l2.3,2.986v.748H18.1a.475.475,0,1,0,0,.95h.47v2.09L17.1,16.8l.308-.309a.475.475,0,0,0-.673-.672l-.308.308-.533-.533-.557-3.764a.475.475,0,0,0-.94.14l.37,2.5-.794-.794a.475.475,0,1,0-.672.673l.823.823-2.51-.328a.475.475,0,1,0-.123.942l3.735.488.53.53-.333.333a.475.475,0,0,0,.672.673l.333-.334L17.9,18.951h-2.09v-.437a.475.475,0,0,0-.95,0v.437h-.754l-3.056-2.268a.475.475,0,0,0-.566.763l2.027,1.5H11.391a.475.475,0,1,0,0,.95h1.163l-2.006,1.543a.475.475,0,0,0,.29.852.47.47,0,0,0,.29-.1l2.986-2.3h.75v.471a.475.475,0,1,0,.95,0V19.9H17.9l-1.478,1.478-.308-.309a.475.475,0,1,0-.673.672l.309.309-.534.533-3.764.558a.475.475,0,0,0,.139.941l2.5-.37-.793.793a.475.475,0,0,0,.672.673l.823-.822-.327,2.509a.476.476,0,0,0,.41.533.61.61,0,0,0,.062,0,.476.476,0,0,0,.471-.415l.487-3.734.53-.529.333.332a.475.475,0,1,0,.672-.672l-.333-.333,1.478-1.478v2.09h-.437a.475.475,0,1,0,0,.95h.437v.754l-2.268,3.056a.476.476,0,0,0,.764.567l1.5-2.028v1.122a.475.475,0,1,0,.951,0V25.923l1.543,2.005a.475.475,0,1,0,.753-.58l-2.3-2.985v-.749H20a.475.475,0,1,0,0-.95h-.47v-2.09L21,22.052l-.309.308a.475.475,0,0,0,.672.672l.309-.309.533.533.558,3.764a.476.476,0,0,0,.469.406.436.436,0,0,0,.07-.005.476.476,0,0,0,.4-.54l-.37-2.5.793.793a.475.475,0,1,0,.672-.672l-.823-.823,2.51.327a.475.475,0,1,0,.123-.943l-3.734-.487-.53-.53.333-.333a.475.475,0,0,0-.672-.672l-.333.333L20.2,19.9h2.09v.437a.475.475,0,0,0,.95,0V19.9h.753l3.056,2.268a.475.475,0,1,0,.566-.763h0Z" transform="translate(-7.206 -7.469)"/></svg>