<svg xmlns="http://www.w3.org/2000/svg" width="24" height="24" viewBox="0 0 24 24"><defs><style>.gladeIcon{fill:#0C97B9;}</style></defs><path class="gladeIcon" d="M12,0a12,12,0,1,0,9.432,19.414c.083-.1.164-.21.244-.318A12,12,0,0,0,12,0ZM7.178,20.878A10.122,10.122,0,0,1,5.3,19.556a5.66,5.66,0,0,0,2.269-1.147c-.088.857-.263,1.826-.39,2.47Zm1.693.728H9V18.37s.652.387,1.475.771l-.263.316a6.323,6.323,0,0,0,.626-.152,7.92,7.92,0,0,0,1.635.544q-.374-.447-.713-.859a23.346,23.346,0,0,0,2.977-1.458v4.194a10.062,10.062,0,0,1-5.867-.118Zm.76-6.394a3.265,3.265,0,0,0,3.3,0,6.161,6.161,0,0,1-2.008-1.32,4.076,4.076,0,0,0,3-.476c.354.886-.82,2.536-2.728,4.864-1.141-1.438-1.793-2.475-1.556-3.067ZM17.1,20.72c-.164-.839-.382-2.058-.493-3.14a7.107,7.107,0,0,0,2.679,1.414A10.165,10.165,0,0,1,17.1,20.72Zm3-2.686a10.375,10.375,0,0,1-3.408-4.958c1.029,1.614,2.366,1.783,4.629,1.061-1.952-.509-3.692-4.166-4.011-4.88.414.982,4.525.868,3.394.765s-4.079-2.572-4.012-4.938c-2.058,4.172-5.349,3.189-5.349,3.189s.72,1.955,2.16.983c-.11,1.183-1.043,2.715-3.2,3.834a2.7,2.7,0,0,1-.359-1.071c1.105.746,1.658-.754,1.658-.754S9.079,12.019,7.5,8.818c.052,1.816-2.21,3.71-3.079,3.789s2.287.166,2.6-.587c-.245.548-1.58,3.354-3.078,3.745,1.737.554,2.763.425,3.553-.814a7.962,7.962,0,0,1-2.843,3.98,10.1,10.1,0,1,1,15.444-.9ZM17.308,9.25C17.244,9.107,17.24,9.088,17.308,9.25ZM7.028,12.014C7.08,11.891,7.077,11.905,7.028,12.014Z" transform="translate(0 0)"/></svg>