<svg xmlns="http://www.w3.org/2000/svg" width="24" height="24" viewBox="0 0 24 24"><defs><style>.groomedIcon{fill:#0C97B9;}</style></defs><path class="groomedIcon" d="M11.554,23.989l2-2a10.129,10.129,0,0,0,8.426-8.426L23.347,12.2a.946.946,0,0,0-.666-1.616.937.937,0,0,1,.666.276.946.946,0,0,1,0,1.34l-1.362,1.362h0l-10.43,10.43A12.033,12.033,0,0,1,9.2,23.668a11.906,11.906,0,0,1-2.641-.975h0A12.09,12.09,0,0,1,4.9,21.672L6.259,20.31,4.9,21.671a12.019,12.019,0,0,1-1.879-1.717l1.239-1.239L3.017,19.953A12,12,0,0,1,18.424,1.867a12.154,12.154,0,0,1,1.529,1.151L18.607,4.363h0L4.363,18.607a10.209,10.209,0,0,0,1.9,1.7L20.31,6.259a10.21,10.21,0,0,0-1.7-1.9l1.346-1.346h0A12,12,0,0,1,12,24C11.851,24,11.7,23.995,11.554,23.989Zm-.726-1.953,11.179-11.18a.352.352,0,0,1,.029-.023,10.027,10.027,0,0,0-.768-2.855L7.853,21.395l.126-.126A10.064,10.064,0,0,0,10.828,22.036ZM1.895,12h0a10.035,10.035,0,0,0,1.355,5.042L17.043,3.248A10.1,10.1,0,0,0,1.895,12Zm18.87-6.2-.455.455.455-.455a.942.942,0,0,1,.669-.277h0A.945.945,0,0,0,20.764,5.8Z"/></svg>