<!-- Generator: Adobe Illustrator 19.0.0, SVG Export Plug-In  -->
<svg version="1.1"
	 xmlns="http://www.w3.org/2000/svg" xmlns:xlink="http://www.w3.org/1999/xlink" xmlns:a="http://ns.adobe.com/AdobeSVGViewerExtensions/3.0/"
	 x="0px" y="0px" width="50.1px" height="41px" viewBox="0 0 50.1 41" style="enable-background:new 0 0 50.1 41;"
	 xml:space="preserve">
<style type="text/css">
	.st0{fill:none;stroke:#8D8D8D;stroke-width:2;stroke-linecap:round;stroke-linejoin:round;stroke-miterlimit:10;}
</style>
<defs>
</defs>
<g>
	<g>
		<g>
			<g>
				<path class="st0" d="M22.3,10c-1.6-1.9-4-3-6.6-3C10.9,7,7,10.9,7,15.7c0,2.5,1.1,4.8,2.8,6.4"/>
			</g>
			<line class="st0" x1="4.5" y1="15.7" x2="1" y2="15.7"/>
			<line class="st0" x1="15.7" y1="1" x2="15.7" y2="4.5"/>
			<line class="st0" x1="7.8" y1="23.7" x2="5.3" y2="26.1"/>
			<line class="st0" x1="26.1" y1="5.3" x2="23.7" y2="7.8"/>
			<line class="st0" x1="7.8" y1="7.8" x2="5.3" y2="5.3"/>
		</g>
		<g>
			<path class="st0" d="M49.1,31c0-4.9-4-8.9-8.9-8.9c-0.5,0-1,0.1-1.4,0.1c-1.7-5.7-7-9.8-13.2-9.8c-7.6,0-13.8,6.2-13.8,13.8
				c0,0.3,0,0.5,0,0.8c-0.1,0-0.2,0-0.3,0c-3.6,0-6.5,2.9-6.5,6.5C5,37,7.9,40,11.5,40c0,0,0,0,0,0v0h28.6v0
				C45.1,39.9,49.1,35.9,49.1,31z"/>
		</g>
	</g>
</g>
</svg>
