<!-- Generator: Adobe Illustrator 19.0.0, SVG Export Plug-In  -->
<svg version="1.1"
	 xmlns="http://www.w3.org/2000/svg" xmlns:xlink="http://www.w3.org/1999/xlink" xmlns:a="http://ns.adobe.com/AdobeSVGViewerExtensions/3.0/"
	 x="0px" y="0px" width="48.6px" height="31.1px" viewBox="0 0 48.6 31.1" style="enable-background:new 0 0 48.6 31.1;"
	 xml:space="preserve">
<style type="text/css">
	.st0{fill:none;stroke:#8D8D8D;stroke-width:2;stroke-linecap:round;stroke-linejoin:round;stroke-miterlimit:10;}
</style>
<defs>
</defs>
<path class="st0" d="M47.6,20.7c0-5.2-4.2-9.4-9.4-9.4c-0.5,0-1,0.1-1.5,0.1C34.8,5.4,29.3,1,22.7,1c-8,0-14.6,6.5-14.6,14.6
	c0,0.3,0,0.6,0,0.8c-0.1,0-0.2,0-0.3,0c-3.8,0-6.9,3.1-6.9,6.9s3.1,6.9,6.9,6.9c0,0,0,0,0,0v0h30.3v0C43.4,30.1,47.6,25.9,47.6,20.7
	z"/>
</svg>
