<!-- Generator: Adobe Illustrator 19.0.0, SVG Export Plug-In  -->
<svg version="1.1"
	 xmlns="http://www.w3.org/2000/svg" xmlns:xlink="http://www.w3.org/1999/xlink" xmlns:a="http://ns.adobe.com/AdobeSVGViewerExtensions/3.0/"
	 x="0px" y="0px" width="47.8px" height="48.4px" viewBox="0 0 47.8 48.4" style="enable-background:new 0 0 47.8 48.4;"
	 xml:space="preserve">
<style type="text/css">
	.st0{fill:none;stroke:#8D8D8D;stroke-width:2;stroke-linecap:round;stroke-linejoin:round;stroke-miterlimit:10;}
</style>
<defs>
</defs>
<g>
	<g>
		<g>
			<path class="st0" d="M46.8,20.4c0-5.1-4.2-9.3-9.3-9.3c-0.5,0-1,0.1-1.5,0.1C34.3,5.3,28.8,1,22.3,1C14.4,1,8,7.4,8,15.3
				c0,0.3,0,0.5,0,0.8c-0.1,0-0.2,0-0.3,0c-3.7,0-6.8,3-6.8,6.8c0,3.7,3,6.8,6.8,6.8c0,0,0,0,0,0v0h29.8v0
				C42.7,29.6,46.8,25.5,46.8,20.4z"/>
		</g>
		<line class="st0" x1="17.7" y1="32.8" x2="11.8" y2="42.3"/>
		<line class="st0" x1="23.7" y1="32.8" x2="14.8" y2="47.4"/>
		<line class="st0" x1="29.7" y1="32.8" x2="23.9" y2="42.3"/>
	</g>
</g>
</svg>
