<!-- Generator: Adobe Illustrator 19.0.0, SVG Export Plug-In  -->
<svg version="1.1"
	 xmlns="http://www.w3.org/2000/svg" xmlns:xlink="http://www.w3.org/1999/xlink" xmlns:a="http://ns.adobe.com/AdobeSVGViewerExtensions/3.0/"
	 x="0px" y="0px" width="47.8px" height="42.2px" viewBox="0 0 47.8 42.2" style="enable-background:new 0 0 47.8 42.2;"
	 xml:space="preserve">
<style type="text/css">
	.st0{fill:none;stroke:#8D8D8D;stroke-width:2;stroke-linecap:round;stroke-linejoin:round;stroke-miterlimit:10;}
</style>
<defs>
</defs>
<g>
	<g>
		<g>
			<path class="st0" d="M37.6,29.6L37.6,29.6c5.1,0,9.2-4.2,9.2-9.3c0-5.1-4.2-9.3-9.3-9.3c-0.5,0-1,0.1-1.5,0.1
				C34.3,5.3,28.8,1,22.3,1C14.4,1,8,7.4,8,15.3c0,0.3,0,0.5,0,0.8c-0.1,0-0.2,0-0.3,0c-3.7,0-6.8,3-6.8,6.8c0,3.7,3,6.8,6.8,6.8
				c0,0,0,0,0,0v0"/>
		</g>
		<g>
			<line class="st0" x1="22.7" y1="29.6" x2="14.6" y2="21.5"/>
			<line class="st0" x1="22.7" y1="29.6" x2="30.9" y2="37.8"/>
			<line class="st0" x1="22.7" y1="29.6" x2="11.2" y2="29.6"/>
			<line class="st0" x1="22.7" y1="29.6" x2="34.3" y2="29.6"/>
			<line class="st0" x1="22.7" y1="29.6" x2="14.6" y2="37.8"/>
			<line class="st0" x1="22.7" y1="29.6" x2="30.9" y2="21.5"/>
			<polyline class="st0" points="27.3,22 28.2,24.2 30.4,25.1 			"/>
			<line class="st0" x1="22.7" y1="29.6" x2="22.7" y2="41.2"/>
			<line class="st0" x1="22.7" y1="29.6" x2="22.7" y2="18.1"/>
			<polyline class="st0" points="18.1,22 17.3,24.2 15,25.1 			"/>
			<polyline class="st0" points="27.3,37.2 28.2,35 30.4,34.1 			"/>
			<polyline class="st0" points="18.1,37.2 17.3,35 15,34.1 			"/>
			<polyline class="st0" points="31.4,27.5 30.4,29.6 31.4,31.8 			"/>
			<polyline class="st0" points="14.1,31.7 15,29.6 14.1,27.4 			"/>
			<polyline class="st0" points="24.9,38.2 22.7,37.3 20.5,38.2 			"/>
			<polyline class="st0" points="20.6,21 22.8,21.9 24.9,21 			"/>
		</g>
	</g>
</g>
</svg>
